<svg width="48" height="48" viewBox="0 0 48 48" fill="none" xmlns="http://www.w3.org/2000/svg">
<g clip-path="url(#clip0_832_6675)">
<path d="M20.4071 0L4.46484 34.7587H11.9982L27.9382 0H20.4071Z" fill="black"/>
<path d="M43.8801 8.35348L24.1001 19.1165V23.9957L43.8801 13.2304V8.35348Z" fill="black"/>
<path d="M43.8801 16.0223L24.1001 26.7854V31.6645L43.8801 20.9015V16.0223Z" fill="black"/>
<path d="M27.9379 0L43.8801 34.7587H36.3467L20.4067 0H27.9379Z" fill="black"/>
<path d="M7.61556 47.6155H5.58667L5.20889 46.3974H2.40444L2.02889 47.6155H0L2.82667 40H4.81111L7.61556 47.6155ZM4.77778 45.0259L3.77778 41.8116L2.83778 45.0259H4.77778Z" fill="black"/>
<path d="M15.4132 47.6155H10.5376V40H12.4443V46.0017H15.4132V47.6155Z" fill="black"/>
<path d="M23.418 47.6155H18.5425V40H20.4447V46.0017H23.4225L23.418 47.6155Z" fill="black"/>
<path d="M28.4442 47.6155H26.5464V40H28.4442V47.6155Z" fill="black"/>
<path d="M38.0554 47.6155H32.0776V40H37.7088V41.4671H33.9776V42.8586H37.4621V44.3034H33.9776V46.1173H38.0554V47.6155Z" fill="black"/>
<path d="M47.9999 43.7433C47.9999 44.9081 47.7088 45.8283 47.1266 46.5041C46.6686 47.0129 46.0595 47.3612 45.3888 47.4977C44.9886 47.5826 44.5801 47.6221 44.171 47.6155H41.1821V40H43.6088C43.9177 40 44.1488 40 44.2999 40C45.4066 40.0726 46.2481 40.346 46.8244 40.8202C47.068 41.0101 47.2732 41.2447 47.4288 41.5115C47.8304 42.1848 48.0288 42.9598 47.9999 43.7433ZM46.091 43.8077C46.091 43.1253 45.9466 42.5985 45.6599 42.2317C45.4673 41.9904 45.2086 41.8105 44.9155 41.7138C44.5735 41.6281 44.221 41.5921 43.8688 41.6071H43.111V46.0839H43.6932C44.471 46.0839 45.0266 45.9506 45.3977 45.6861C45.8577 45.3326 46.091 44.708 46.091 43.7989V43.8077Z" fill="black"/>
</g>
<defs>
<clipPath id="clip0_832_6675">
<rect width="48" height="48" fill="white"/>
</clipPath>
</defs>
</svg>
