<svg width="210" height="71" viewBox="0 0 210 71" fill="none" xmlns="http://www.w3.org/2000/svg">
<g clip-path="url(#clip0_9_474)">
<path fill-rule="evenodd" clip-rule="evenodd" d="M25.4348 36.9507H0V40.8296H25.4348V36.9507ZM25.4348 32.6073H0V33.5381H25.4348V32.6073ZM25.4348 29.0393H0V29.9701H25.4348V29.0393ZM25.4348 25.4713H0V26.4021H25.4348V25.4713ZM25.4348 22.0587H0V22.9896H25.4348V22.0587ZM25.4348 18.3372H0V19.268H25.4348V18.3372Z" fill="#231F20"/>
<path fill-rule="evenodd" clip-rule="evenodd" d="M182.097 19.1509C182.521 19.5521 182.896 20.0722 182.997 20.5425C184.013 20.8476 185.168 20.2584 185.295 19.1509H182.097ZM80.8551 36.9526L81.9914 33.5401H63.9824V32.6092H82.3004L83.1794 29.972H63.9824V29.0412H83.4903L84.3694 26.404H63.9843V25.4732H84.6803L85.3367 23.502L85.1237 22.9915H63.9843V22.0606H84.736L84.713 22.0069L87.6802 19.268H63.9843V18.3372H210V19.268H193.469L194.457 22.0606H209.998V22.9915H194.786L195.665 25.4732H209.998V26.404H195.995L196.928 29.0412H209.998V29.972H197.258L198.192 32.6092H209.998V33.5401H198.521L199.73 36.9526H209.998V40.8315H63.9843V36.9526H80.8551Z" fill="#231F20"/>
<path fill-rule="evenodd" clip-rule="evenodd" d="M132.828 24.5117L130.811 32.3079C132.882 32.3233 134.396 31.3291 135.673 29.2274C137.049 25.3773 136.59 24.0626 132.83 24.5117M127.097 20.8957C127.31 20.0454 127.229 19.2604 126.686 18.8958H138.972C140.905 19.0052 142.62 19.4658 143.369 20.817C146.035 27.1162 140.753 38.6148 132.053 37.9277L122.362 37.8509C121.786 37.8509 121.512 37.8816 121.892 36.8893L127.097 20.8957ZM88.7722 18.8958H105.125C105.526 18.9303 105.549 19.3468 105.368 19.7345L104.1 23.8591H95.4783L95.1347 25.5155H100.672C101.795 25.55 102.025 25.9281 101.695 27.3139C101.459 28.143 101.198 29.7456 100.783 30.4443C100.564 30.8128 100.238 30.8608 99.6854 30.8569H93.3363L92.9179 32.5037L102.167 32.5402L106.092 20.4005C106.376 19.7498 106.34 19.2297 105.86 18.8977H115.067L116.955 27.6498H117.357L119.41 20.602C119.715 19.7997 119.523 19.2585 118.988 18.8977H125.301C126.31 18.8881 126.326 19.1529 125.982 20.5406L120.654 37.9162H112.113L110.518 28.9491L110.13 28.9453L107.768 36.945C107.606 37.5131 107.361 37.9085 106.656 37.9162H84.3078C83.8952 37.8605 83.9086 37.3711 84.114 36.7703L89.227 20.6039C89.5476 19.771 89.4593 19.1664 88.7702 18.8996L88.7722 18.8958ZM146.089 18.8977H154.474C155.236 19.2201 155.234 19.7633 154.303 20.0224L151.574 28.1603C151.271 29.0681 150.563 30.4635 151.046 31.4654C151.895 32.7974 153.952 32.4269 154.637 30.1065L157.687 20.7153C157.326 20.0454 157.046 19.3506 157.213 18.8977H164.756C165.46 18.9994 165.775 19.343 165.341 20.2642C163.869 24.5731 162.472 29.2658 160.683 33.1639C159.843 34.9969 159.535 35.5727 158.109 36.3538C154.68 38.2329 149.987 38.2041 146.592 37.4037C144.69 36.7972 143.653 35.9335 143.402 34.1178C143.287 31.9471 143.776 30.3176 144.321 28.4616L146.641 20.5924C146.937 19.9015 146.841 19.2163 146.085 18.8977H146.089ZM191.252 29.1315H188.5L189.843 26.051L191.252 29.1315ZM165.769 18.8958H177.763C179.692 18.9245 181.105 19.4063 181.878 20.2527C182.21 20.6673 182.341 21.007 182.477 21.5348C183.233 25.4598 181.066 28.5384 177.696 30.0508L178.297 35.2042L186.275 20.1567C186.63 19.6097 186.688 19.0992 186.408 18.8996H194.108L200.563 37.9181H194.96C193.674 37.8356 193.331 37.8375 192.868 36.373L192.008 33.4634H186.744L184.028 37.9219L172.727 37.9181C171.953 37.9833 171.522 37.9181 171.335 37.1216L170.856 29.1238L171.201 27.0164C172.276 27.1661 173.272 27.0644 174.099 26.6152C174.767 26.0279 175.078 25.2353 174.633 24.6479C174.157 24.4368 173.738 24.3485 173.197 24.3082C172.627 24.2948 171.948 24.4656 171.502 24.9301L170.147 29.8781L168.002 37.9162H161.497C160.869 37.8759 160.973 37.2291 161.345 35.9834L166.18 20.9705C166.462 20.0051 166.326 19.2969 165.775 18.8958H165.769Z" fill="white"/>
<path fill-rule="evenodd" clip-rule="evenodd" d="M19.8573 40.8296H66.2318C77.0011 34.0621 78.479 22.8265 72.9437 14.7577C60.2186 -4.88655 30.2754 -2.93076 17.9937 9.03041C9.15908 16.8267 5.03831 31.4691 19.8573 40.8296Z" fill="#231F20"/>
<path fill-rule="evenodd" clip-rule="evenodd" d="M21.2276 37.0947H64.8556C73.3658 31.1909 74.2142 22.8572 69.222 15.7922C57.2513 -0.25517 32.6533 1.3417 21.0971 11.1129C13.2183 18.0455 9.45073 28.882 21.2276 37.0928" fill="white"/>
<path fill-rule="evenodd" clip-rule="evenodd" d="M45.171 30.5957C45.171 30.5957 45.0923 31.5208 44.5817 31.5208H43.0271V9.57536H44.5817C44.5817 9.57536 45.171 9.61759 45.171 10.416V30.5938M46.5164 6.46415C43.5338 6.03614 39.6625 6.46415 39.6625 6.46415V34.5994H47.2304C48.5758 34.5994 48.5758 32.6532 48.5758 32.6532V9.03028C48.5758 6.80195 46.5145 6.46607 46.5145 6.46607L46.5164 6.46415ZM33.6033 17.9839C33.0563 18.195 31.8797 18.5731 31.8797 18.5731V11.8881L33.3499 11.2164C33.3499 11.2164 34.0639 10.8805 34.0639 11.5523V17.3121C34.0639 17.3121 34.1483 17.7747 33.6013 17.9839H33.6033ZM37.4707 17.4369V8.56772C37.4707 8.56772 37.6146 7.83454 37.177 7.38926C36.7068 6.91327 35.8738 6.96893 35.8738 6.96893C31.9968 7.71938 28.4326 9.52546 28.4326 9.52546V34.5994H31.8797V22.0586C31.8797 22.0586 32.2943 21.8609 33.0563 21.7227C33.8777 21.5749 34.108 22.3542 34.108 22.3542V34.5994H37.4707V20.6728C37.4707 19.6633 36.2519 19.1585 36.2519 19.1585C37.5129 18.8226 37.4707 17.435 37.4707 17.435V17.4369ZM22.8858 21.2717L19.3888 23.1449C19.6383 19.5654 22.8858 16.9858 22.8858 16.9858V21.2736V21.2717ZM15.9724 23.2236C15.2546 29.5785 20.3062 33.419 20.3062 33.419L21.8839 30.5113C20.5519 28.97 19.5942 26.64 19.5942 26.64L22.8417 24.974V34.6282H26.1294V10.4621C21.2506 13.2681 16.602 17.648 15.9724 23.2255V23.2236ZM66.2604 33.0198L64.5426 27.9701L61.6291 34.5994H58.0899L63.0436 23.1008L59.0572 9.93619C59.0572 9.93619 61.18 10.9649 63.4409 12.7058L65.0416 18.1892L66.2719 15.3506C66.2719 15.3506 67.8151 17.053 68.4945 18.3562L66.4965 23.2678L68.7862 29.8856C68.7862 29.8856 67.9206 31.517 66.2585 33.0198H66.2604ZM56.9479 34.6013H50.7677V7.00924C50.7677 7.00924 54.5008 7.75969 57.5371 9.28938V12.9054C57.5371 12.9054 55.5602 12.0263 54.1726 11.773V18.7382C54.1726 18.7382 58.1667 19.6633 60.3528 20.6728V23.8263C60.3528 23.8263 56.4009 22.3542 54.1726 22.0605V31.6878H56.9479V34.6013Z" fill="#231F20"/>
<path d="M44.5799 68.6328H44.457V68.7441H44.5799V68.6328Z" fill="#231F20"/>
<path d="M50.3321 59.4624H50.2534V59.5526H50.3321V59.4624Z" fill="#231F20"/>
<path d="M45.8178 66.7903H45.7737V66.869H45.8178V66.7903Z" fill="#231F20"/>
<path d="M60.7309 55.5872C61.4449 55.2226 62.0341 54.8502 62.4947 54.4702C63.4026 53.6506 63.9361 52.8772 64.0916 52.1478C64.0916 51.739 63.9457 51.3398 63.6559 50.9521C63.2452 50.5202 62.5274 50.2112 61.5005 50.0251L61.4103 50.0692C61.1877 49.9867 60.7731 49.9195 60.1704 49.8677C60.1704 49.8965 60.0918 49.9233 59.9363 49.9464C59.9363 49.8945 59.8691 49.8677 59.7348 49.8677L59.3778 49.9118L59.2108 49.8677C57.7963 50.0097 56.9019 50.1537 56.5295 50.3034L56.3395 50.2688C56.042 50.3283 55.8923 50.3955 55.8923 50.4703H55.614C55.3376 50.4703 54.8847 50.6047 54.2513 50.8715C53.1035 51.2227 52.5316 51.4607 52.5316 51.5874C52.211 51.6162 52.0517 51.6699 52.0517 51.7428C51.6794 51.787 51.1612 52.0403 50.499 52.5029V52.547L50.5777 52.5029C50.6295 52.5029 50.6564 52.5317 50.6564 52.5931L50.6123 52.6718L50.332 52.6277H50.2533C49.6795 52.881 49.3743 53.0825 49.3378 53.2303C48.9501 53.3954 48.4549 53.689 47.8523 54.1132C47.741 54.3224 47.4204 54.6122 46.8926 54.9846C46.3571 55.4529 46.052 55.8828 45.9771 56.2686C46.0366 56.5373 46.1978 56.6697 46.4569 56.6697L46.6585 56.6256L46.9387 55.9884C47.4147 55.5047 48.1632 54.9174 49.1843 54.2245C50.9117 53.1363 52.4836 52.3513 53.8981 51.8676C53.8981 51.8964 53.925 51.9117 53.9768 51.9117C53.426 53.2361 53.0939 53.9405 52.9826 54.023C52.8118 54.6775 52.6371 55.0921 52.4586 55.2629L52.2245 55.7427L52.426 55.7082H52.4606V55.7427L52.0575 56.0325L52.1477 56.1438C52.0287 56.1438 51.8944 56.2628 51.7466 56.5008C50.7044 56.8367 50.1823 57.186 50.1823 57.5507H50.3052C50.3052 57.4682 50.332 57.4279 50.3839 57.4279H50.4626V57.4605L50.3839 57.5833V57.6275H50.4626V57.6601L50.428 57.8616C50.451 57.8616 50.4626 57.877 50.4626 57.9058C50.8637 57.9576 51.0652 58.0497 51.0652 58.1841H51.0998C51.0998 58.0804 51.1285 58.0286 51.19 58.0286H51.3454V58.1399H51.2226C51.0729 58.4912 50.9136 58.6658 50.7428 58.6658V58.7445L50.8215 58.8673V58.946C50.7984 58.946 50.762 58.9614 50.7101 58.9902L50.5432 58.946C50.4088 59.2147 50.3416 59.374 50.3416 59.4259C50.3416 59.447 50.3819 59.4738 50.4645 59.5046C50.4645 59.5641 50.4242 59.6466 50.3416 59.7502C50.3186 59.7502 50.2821 59.7349 50.2303 59.7061C50.119 59.7061 50.0518 59.8136 50.0288 60.0304L50.0633 60.1091C49.952 60.1091 49.858 60.1878 49.7831 60.3433L49.3474 61.1033C49.3705 61.1033 49.382 61.1302 49.382 61.182C49.4108 61.182 49.4261 61.1705 49.4261 61.1475L49.5048 61.182L49.4722 61.2722C49.428 61.2722 49.3973 61.2415 49.382 61.182C49.2246 61.2646 49.1478 61.3452 49.1478 61.4277V61.5064L49.3033 61.3836C49.2803 61.7041 49.2553 61.8788 49.2246 61.9095C49.1651 61.9095 49.1133 61.8941 49.0691 61.8653V61.7079H49.025C48.9578 61.7598 48.9175 61.7866 48.9021 61.7866H48.8695C48.5797 61.6907 48.1766 61.4891 47.6623 61.184C47.1709 60.7963 46.7871 60.5314 46.5126 60.3913C46.4166 60.2051 46.2823 60.1111 46.1115 60.1111C46.1115 60.1322 46.0961 60.1437 46.0673 60.1437H45.9445C45.9003 60.1437 45.8735 60.1187 45.8658 60.065L45.9445 59.9422V59.9095C45.5721 59.9095 45.386 59.7502 45.386 59.4297C45.1326 59.1687 44.9464 58.9153 44.8274 58.6697C44.791 58.6697 44.7487 58.7215 44.7046 58.827C44.8082 59.065 44.9157 59.184 45.029 59.184C45.029 59.2435 44.9771 59.2742 44.8716 59.2742V59.3856C44.9157 59.3856 44.9829 59.4105 45.0731 59.4643L45.029 59.6658C45.1192 59.6658 45.1844 59.733 45.2305 59.8673H45.432C45.432 59.9268 45.4167 59.9825 45.3879 60.0343C45.4838 60.2953 45.6182 60.4258 45.7909 60.4258C46.0596 60.7771 46.2189 60.9517 46.2708 60.9517C46.2708 60.921 46.2861 60.9076 46.3149 60.9076H46.3475C46.9061 61.3394 47.3091 61.5928 47.5548 61.6676C47.7486 61.9651 47.9463 62.1148 48.1459 62.1148C48.3916 62.1148 48.5528 62.2761 48.6258 62.5947V62.6733H48.4242L48.4684 62.9536C48.3782 62.9843 48.3263 62.9977 48.3129 62.9977V63.0764L48.3475 63.1551C48.3033 63.1551 48.2764 63.182 48.2688 63.2338C47.9118 63.4948 47.7256 63.6963 47.7102 63.8365L47.7544 63.9938C47.7544 64.1052 47.6469 64.1877 47.43 64.2395C47.2227 64.6579 46.979 65.0283 46.7045 65.3565V65.4007C46.7871 65.4007 46.8427 65.4525 46.8715 65.5581C46.8715 65.654 46.7775 65.7884 46.5913 65.9592H46.5471C46.5471 65.9304 46.5356 65.8882 46.5126 65.8364C46.5798 65.8287 46.6316 65.7615 46.6681 65.6349C46.6393 65.6349 46.6239 65.6195 46.6239 65.5907C46.5951 65.5907 46.5011 65.6982 46.3437 65.9151C46.2996 66.13 46.2477 66.2394 46.1882 66.2394C46.1441 66.3968 46.0769 66.4736 45.9867 66.4736V66.5964H46.1095C46.1095 66.7385 45.9905 66.8824 45.7525 67.0321V67.0763L45.7871 67.155C45.7353 67.2068 45.6009 67.2739 45.384 67.3565C45.2881 67.6329 45.1537 67.8325 44.981 67.9591L45.0251 68.1607C44.7564 68.3104 44.6221 68.414 44.6221 68.4735V68.5522H44.9791C45.1288 68.3142 45.2631 68.1952 45.3821 68.1952C45.9637 67.5849 46.2823 67.2797 46.3418 67.2797C46.789 66.6387 47.0423 66.32 47.1018 66.32C47.2803 65.7999 47.4665 65.4928 47.6603 65.4045C47.8772 65.0552 48.0097 64.8806 48.0634 64.8806C48.3014 64.3739 48.7409 63.6925 49.382 62.8365H49.4722C49.5758 62.8883 49.6276 62.9305 49.6276 62.9593C50.0518 63.0419 50.3052 63.1762 50.3877 63.3624C50.76 63.3835 50.9462 63.4372 50.9462 63.5178C51.4145 63.6676 51.6679 63.775 51.7063 63.8422C51.7658 63.8422 51.8176 63.8269 51.8617 63.7981C51.9519 63.8499 52.0325 63.8768 52.1074 63.8768H52.3416V63.9209C52.5584 63.9209 52.6659 64.0149 52.6659 64.2011H52.9461C52.9461 64.2837 53.0133 64.324 53.1477 64.324H53.1918L53.3031 64.2453H53.3473C53.4298 64.2837 53.6678 64.3604 54.0613 64.4794C54.2033 64.4583 54.2858 64.4468 54.3069 64.4468C54.3818 64.5216 54.6601 64.6003 55.1438 64.681C55.1956 64.6522 55.2378 64.6368 55.2666 64.6368C55.4086 64.6368 55.5276 64.6656 55.6236 64.727C55.6908 64.727 55.7982 64.7117 55.948 64.6829L56.3049 64.727C56.4911 64.6982 56.5986 64.6829 56.6293 64.6829L56.7848 64.7616C57.4393 64.7616 57.921 64.6944 58.2262 64.56L58.4277 64.6387L59.9017 64.3585C61.2568 63.8307 62.1761 63.3125 62.6598 62.8058C63.2778 61.9862 63.5868 61.3567 63.5868 60.9191C63.5868 60.8366 63.5465 60.6657 63.464 60.4047L63.5081 60.326C63.2471 59.5295 62.9938 59.0343 62.7481 58.8405C61.5792 57.7829 60.205 57.0498 58.6273 56.639L58.6619 56.5603C59.7041 56.1362 60.3969 55.8156 60.7386 55.6007L60.7309 55.5872ZM47.5394 64.3873L47.4953 64.466C47.4511 64.466 47.4243 64.441 47.4166 64.3873C47.4166 64.3432 47.4435 64.3163 47.4953 64.3086H47.5394V64.3873ZM50.4549 59.3069C50.4549 59.2627 50.4798 59.2359 50.5336 59.2282L50.6123 59.2723C50.5892 59.3241 50.5777 59.3625 50.5777 59.3836H50.4549V59.3049V59.3069ZM49.6948 61.0266H49.6161V60.8692H49.6948V61.0266ZM59.1782 57.5526C60.1244 57.9998 60.6829 58.2225 60.8537 58.2225C60.9439 58.3779 61.0917 58.5123 61.3009 58.6236C61.4046 58.6236 61.5351 58.7061 61.6925 58.8693C61.9823 59.2493 62.1838 59.4758 62.2951 59.5506C62.4141 59.7656 62.5638 60.113 62.7423 60.589C62.5485 61.3855 62.347 61.8519 62.1397 61.9862C61.8268 62.4699 61.2952 62.873 60.5428 63.1935C60.0073 63.537 58.7003 63.8153 56.6216 64.0322L55.8961 63.9535L55.7407 64.0322C55.6581 63.9804 55.472 63.9247 55.1821 63.8652C55.1591 63.8652 55.0785 63.8806 54.9365 63.9094C54.0881 63.7827 53.6486 63.704 53.6179 63.6752C52.925 63.5486 52.5373 63.4507 52.4567 63.3854C51.5335 63.1033 50.6295 62.7309 49.7428 62.2684C50.6295 60.5775 51.4145 59.1668 52.0997 58.0344C52.0997 57.9672 52.3934 57.8847 52.9826 57.7887H53.0172L53.0959 57.8328V57.7887C53.9519 57.7292 54.3799 57.6371 54.3799 57.5085C54.4394 57.5085 54.4912 57.5238 54.5373 57.5526C54.6793 57.5526 55.3856 57.4183 56.66 57.1515C57.04 57.1515 57.5084 57.2033 58.0669 57.3089C58.111 57.2858 58.1494 57.2743 58.1782 57.2743C58.6331 57.4605 58.967 57.5545 59.1839 57.5545L59.1782 57.5526ZM56.9326 56.2225H56.5756L56.3414 56.1899C56.2896 56.211 56.2339 56.2225 56.1744 56.2225C55.2666 56.1707 54.8117 56.1189 54.8117 56.0671L54.4989 56.1458C54.4682 56.1458 54.4279 56.1342 54.376 56.1131C54.3319 56.1342 54.2801 56.1458 54.2206 56.1458H53.9404L53.6601 56.1131C53.6601 56.1726 53.4701 56.2091 53.0901 56.2244V56.1131C53.5143 55.4356 54.2359 53.8752 55.257 51.4319C55.7925 51.2688 56.5372 51.0941 57.4911 50.9079L57.5813 50.9521C58.6753 50.8408 59.301 50.7582 59.4584 50.7064C59.5543 50.7064 59.6733 50.7218 59.8154 50.7506C59.8384 50.7506 59.9459 50.7352 60.1397 50.7064C60.9881 50.7582 61.4948 50.8408 61.6579 50.9521C61.6579 50.9214 61.6694 50.9079 61.6925 50.9079H61.7827C62.6828 51.2131 63.1339 51.5068 63.1339 51.7889C63.1339 51.8196 63.1224 51.8599 63.1012 51.9117L63.1339 51.9904L63.1012 52.2246C62.892 52.8273 62.2932 53.524 61.3028 54.3128C60.1858 54.9827 58.729 55.6199 56.9364 56.2225H56.9326Z" fill="#231F20"/>
<path d="M72.548 54.4145C72.7649 54.4145 73.0912 54.2802 73.5307 54.0134C74.4098 53.4261 74.9011 52.9635 75.0048 52.6276V52.4933C74.9894 52.4933 74.8263 52.4645 74.5134 52.4031C74.0969 52.5816 73.7687 52.7601 73.5307 52.9386C72.5768 53.4011 72.1008 53.7428 72.1008 53.9654C72.1008 54.2264 72.2505 54.3742 72.548 54.4126V54.4145Z" fill="#231F20"/>
<path d="M90.3727 54.4145C90.5896 54.4145 90.9159 54.2802 91.3554 54.0134C92.2345 53.4261 92.7258 52.9635 92.8295 52.6276V52.4933C92.8141 52.4933 92.651 52.4645 92.3381 52.4031C91.9216 52.5816 91.5934 52.7601 91.3554 52.9386C90.4015 53.4011 89.9255 53.7428 89.9255 53.9654C89.9255 54.2264 90.0752 54.3742 90.3727 54.4126V54.4145Z" fill="#231F20"/>
<path d="M107.115 56.8271C106.773 57.4145 106.514 57.7868 106.34 57.9442C106.165 58.0996 105.887 58.3684 105.507 58.7484C105.052 59.1207 104.737 59.4009 104.557 59.5871C104.378 59.7733 104.157 59.948 103.898 60.113C104.211 58.5948 104.367 57.4548 104.367 56.6947C104.33 56.3454 104.267 56.1688 104.177 56.1688C104.177 55.8713 103.875 55.6525 103.273 55.5105C103.221 55.5393 103.079 55.57 102.848 55.6007C102.209 55.8924 101.689 56.1899 101.28 56.4951C101.255 56.4951 101.232 56.4932 101.205 56.5009C101.123 56.5277 100.994 56.6563 100.814 56.8866C100.793 56.9154 100.764 56.9481 100.743 56.9768C100.662 57.0632 100.589 57.1515 100.526 57.2398C100.267 57.5277 99.931 57.8367 99.5069 58.1707C98.9042 58.6467 98.2344 58.9787 97.4954 59.1649H97.4167C97.3342 59.1284 97.2901 59.09 97.2824 59.0535L97.2593 58.7733C97.2363 58.5584 97.3189 58.0996 97.505 57.3991L97.4609 57.3204C97.4609 57.2686 97.5012 57.1649 97.5837 57.0076C97.5165 56.2936 97.1883 55.9347 96.601 55.9347H96.3323C96.0559 56.0613 95.9216 56.1515 95.9293 56.2034C95.6164 56.2629 95.1615 56.6083 94.5666 57.2417H94.5339V57.1976C94.7124 56.9442 94.7911 56.6947 94.7681 56.449L94.7566 56.3703C94.7412 56.1631 94.5896 56.046 94.2978 56.0249C94.223 56.0249 94.127 56.0767 94.008 56.1803C93.9217 56.4375 93.8238 56.6736 93.7278 56.9116C92.9927 57.7196 92.6012 58.1246 92.557 58.1246C92.4668 58.3031 92.3785 58.3933 92.2883 58.3933C91.2826 59.2877 90.584 59.733 90.1886 59.733H89.8316C89.6531 59.637 89.5629 59.472 89.5629 59.2416V58.7503C89.5629 58.1553 89.8162 57.3799 90.3229 56.4279V56.2936C90.2481 56.1439 90.1291 56.0709 89.966 56.0709H89.8757L89.5188 56.4721C89.346 56.6333 89.1944 56.8751 89.0543 57.1611C88.966 57.2552 88.8719 57.3569 88.7702 57.4663C87.4517 58.568 86.3576 59.1015 85.4863 59.0631C85.0775 59.0631 84.8721 58.7733 84.8721 58.1918V58.0478C84.8721 57.8693 85.1446 57.4778 85.6878 56.8751C86.6398 55.7734 87.2693 54.7562 87.5745 53.8253L87.5188 53.7255C88.0255 53.0269 88.2789 52.4818 88.2789 52.096C88.2789 51.8273 88.0255 51.6239 87.5188 51.4819C87.1983 51.4819 86.7588 51.8062 86.2003 52.453C85.7243 52.9828 85.4325 53.4069 85.3289 53.7255C84.7934 54.5451 84.4729 55.2552 84.3692 55.8598H84.2694C84.1658 55.8598 83.9604 55.808 83.6552 55.7043C83.066 55.7485 82.542 55.9347 82.0795 56.2629C82.0238 56.3051 81.9739 56.3473 81.9183 56.3895C81.9144 56.3895 81.9144 56.3876 81.9106 56.3857L81.8972 56.4068C81.1947 56.9596 80.6976 57.4931 80.4078 58.0075C80.0162 58.3875 79.5921 58.7234 79.1295 59.0113C78.4213 59.5257 77.7591 59.781 77.1411 59.781H76.9626C76.5749 59.781 76.3657 59.6025 76.3369 59.2455L76.3023 58.8424C76.3926 57.8521 76.5116 57.2264 76.6593 56.9653C76.644 56.8022 77.1277 56.5181 78.1123 56.117C79.0355 55.5297 79.7322 54.8886 80.2005 54.1958C80.5805 53.7716 80.853 53.0269 81.0162 51.9617C80.9855 51.574 80.734 51.3801 80.2561 51.3801C79.6976 51.3801 78.857 52.096 77.7322 53.524C76.9952 54.38 76.6229 54.975 76.6152 55.3109C76.3465 55.6832 76.216 55.9212 76.2237 56.0268C76.0893 56.0268 75.9895 56.1285 75.9223 56.3339C75.8686 56.4951 75.8551 56.7101 75.8628 56.9519C75.1508 57.7311 74.7707 58.1246 74.7266 58.1246C74.6364 58.3031 74.5481 58.3933 74.4579 58.3933C73.4522 59.2877 72.7535 59.733 72.3582 59.733H72.0012C71.8227 59.637 71.7325 59.472 71.7325 59.2416V58.7503C71.7325 58.1553 71.9858 57.3799 72.4925 56.4279V56.2936C72.4177 56.1439 72.2987 56.0709 72.1355 56.0709H72.0453L71.6883 56.4721C71.5712 56.5796 71.4638 56.7216 71.3639 56.8866C70.0646 58.2167 69.1951 58.8846 68.7633 58.8846C68.6136 58.7733 68.5406 58.6985 68.5406 58.662V58.2609C68.7191 57.7177 68.8688 57.3607 68.9878 57.188C69.3448 56.7715 69.5233 56.5335 69.5233 56.474C69.4485 56.3243 69.389 56.2513 69.3448 56.2513H69.2105C69.0608 56.2513 68.8823 56.2801 68.675 56.3416C68.0646 57.0786 67.5272 57.6736 67.0666 58.1284C66.1722 58.8731 65.5772 59.2455 65.2797 59.2455C65.2202 59.2301 65.1607 59.1553 65.1012 59.0228C65.153 58.4413 65.2432 58.0248 65.3699 57.7714C65.9054 56.9231 66.1741 56.4471 66.1741 56.3416C66.0033 56.2226 65.8536 56.1631 65.7269 56.1631C65.5772 56.2226 65.4736 56.2533 65.4141 56.2533C64.6099 57.2129 64.2087 58.1361 64.2087 59.0228V59.067C64.3431 59.7215 64.6559 60.0497 65.1473 60.0497C65.297 60.0497 65.4755 60.0209 65.6828 59.9595C65.9649 59.9595 66.5772 59.4969 67.5138 58.5737C67.7902 59.3184 68.1913 59.6908 68.721 59.6908H68.7652C69.3007 59.6908 69.8515 59.4374 70.4177 58.9307C70.554 58.7848 70.6634 58.6486 70.7843 58.5104C70.7594 58.6236 70.7306 58.7215 70.7075 58.8424C70.7306 59.0209 70.7594 59.1111 70.7977 59.1111C70.7977 60.0036 71.3198 60.5103 72.362 60.6293L72.8092 60.5391C73.4426 60.374 74.2026 59.8693 75.0874 59.0209C75.2333 58.852 75.3619 58.687 75.4905 58.5219C75.479 58.6275 75.4655 58.7273 75.4559 58.8424L75.5001 59.3798C75.8206 60.1533 76.3407 60.541 77.0643 60.541H77.2889C78.2006 60.541 79.1871 60.0554 80.2485 59.0977C80.3483 59.4854 80.6765 59.7656 81.2638 59.9249H81.878C82.4653 59.7906 83.1447 59.4336 83.9105 58.852C84.3654 59.5679 84.9412 59.9249 85.6417 59.9249C86.231 59.9249 86.9929 59.5852 87.9315 58.9077C88.2002 58.7004 88.4363 58.5085 88.6531 58.3242C88.6128 58.4912 88.5687 58.6524 88.5341 58.8405C88.5572 59.019 88.586 59.1092 88.6244 59.1092C88.6244 60.0017 89.1464 60.5084 90.1886 60.6274L90.6358 60.5372C91.2385 60.3817 91.9582 59.9057 92.7893 59.1303C92.6472 59.5718 92.5551 59.9595 92.5244 60.28V60.3126C92.5474 60.5218 92.7413 60.6639 93.106 60.7368C93.2096 60.708 93.2576 60.6811 93.2518 60.6581C93.3344 60.6216 93.5244 60.3261 93.8219 59.7752C93.9121 59.3587 94.0042 59.138 94.1021 59.1169C94.4514 58.543 94.6798 58.2398 94.7834 58.2014C94.9773 57.9192 95.0924 57.7772 95.1289 57.7772C95.5915 57.33 96.0406 56.9481 96.4801 56.6275H96.626C96.6778 56.6275 96.7085 56.6544 96.7162 56.7062L96.7507 57.0076C96.4686 58.0574 96.3342 58.6716 96.3477 58.8501C96.363 58.9691 96.3822 59.0478 96.4033 59.0843C96.4552 59.591 96.8832 59.8846 97.6874 59.9671C98.0597 59.8923 98.3322 59.804 98.5031 59.6984C99.0981 59.3626 99.6048 58.9998 100.021 58.6083C100.085 58.5488 100.148 58.4797 100.213 58.4144C100.246 58.9 100.595 59.2129 101.284 59.3414C102.037 59.3414 102.714 58.9326 103.317 58.1131H103.417V58.259L102.846 60.9959C101.9 61.4201 100.703 62.3701 99.2497 63.8442C98.006 65.2299 97.2248 66.416 96.9043 67.4064C96.5838 68.3968 96.4379 69.1799 96.4628 69.7576C96.4897 70.3353 96.6893 70.6961 97.0655 70.8401C97.4417 70.9859 97.9637 70.8631 98.6297 70.4773C99.2957 70.0896 99.8946 69.4639 100.422 68.6002C100.95 67.7365 101.365 66.9688 101.662 66.299C101.944 65.8882 102.086 65.6502 102.086 65.5831C102.369 64.942 102.511 64.5965 102.511 64.5447C102.779 64.2088 103.109 63.2338 103.505 61.6178C103.944 61.1187 104.658 60.4719 105.649 59.6735C106.251 59.0324 106.775 58.4317 107.219 57.8693C107.662 57.307 107.883 56.9001 107.883 56.6467C107.852 56.6467 107.839 56.6275 107.839 56.5911C107.748 56.4279 107.507 56.5047 107.113 56.8252L107.115 56.8271ZM85.3922 55.5988C86.158 53.7735 86.7703 52.81 87.2233 52.7064V52.9079L86.4632 54.4261C85.9047 55.2821 85.563 55.7255 85.4364 55.7542H85.3922V55.5988ZM78.6689 53.3858C79.4884 52.4626 80.0354 52.0001 80.3099 52.0001L80.3214 52.2227C80.0393 53.0423 79.7936 53.5336 79.5844 53.6967C79.07 54.5086 78.333 55.1631 77.3733 55.6621L77.2831 55.618C77.3503 55.261 77.8109 54.5163 78.6689 53.3839V53.3858ZM83.5036 58.0881C82.7589 58.7369 82.1659 59.0939 81.7283 59.1591C81.3559 59.1303 81.1697 59.0593 81.1697 58.948V58.6025C81.1697 58.52 81.2216 58.3684 81.3252 58.1438C82.1582 56.9903 82.8856 56.4126 83.5036 56.4126C83.5708 56.4414 83.6226 56.4567 83.6591 56.4567V56.6678C83.6591 56.9807 83.7455 57.2494 83.9163 57.472C83.9163 57.5546 83.7781 57.758 83.5036 58.0862V58.0881ZM103.319 56.9269C102.902 57.6275 102.351 58.1783 101.666 58.5795H101.33C101.175 58.5795 101.081 58.5353 101.05 58.4451V58.0651C101.05 57.9231 101.113 57.735 101.24 57.4951C101.902 56.712 102.532 56.2705 103.127 56.165H103.317L103.273 56.5009L103.317 56.925L103.319 56.9269ZM101.9 64.0303C101.9 64.299 101.793 64.5658 101.576 64.8345C101.33 65.6829 100.8 66.7251 99.9905 67.9611C99.0673 69.2566 98.3111 69.9764 97.7238 70.1165C97.1365 70.2566 97.0079 69.7441 97.338 68.5753C97.6701 67.4064 98.2305 66.3565 99.0194 65.4257C99.8312 64.324 100.524 63.5313 101.096 63.0476L102.626 61.8865C102.225 63.2799 101.981 63.9939 101.9 64.0303Z" fill="#231F20"/>
<path d="M146.689 51.1306H146.488V51.3648H146.689V51.1306Z" fill="#231F20"/>
<path d="M146.175 51.242C146.25 51.1671 146.279 51.1307 146.265 51.1307V51.0635C146.116 51.0865 146.079 51.146 146.154 51.242H146.175Z" fill="#231F20"/>
<path d="M147.806 51.0749H147.695V51.096C147.745 51.096 147.78 51.0999 147.806 51.1037V51.073V51.0749Z" fill="#231F20"/>
<path d="M147.828 51.1633C147.874 51.1325 147.862 51.1134 147.806 51.1038V51.1191L147.828 51.1633Z" fill="#231F20"/>
<path d="M145.549 51.2766L145.941 51.1768H145.417L145.528 51.1883C145.544 51.1883 145.551 51.219 145.551 51.2785L145.549 51.2766Z" fill="#231F20"/>
<path d="M141.256 50.9963C141.242 50.9944 141.227 50.9924 141.212 50.9924V50.9963H141.254H141.256Z" fill="#231F20"/>
<path d="M145.125 51.0365C145.148 51.1133 145.2 51.1689 145.304 51.1862V50.9751H145.125V50.9194H144.924V51.1536H145.125V51.0384V51.0365Z" fill="#231F20"/>
<path d="M142.937 50.8179H142.736V51.052H142.937V50.8179Z" fill="#231F20"/>
<path d="M165.453 56.2456C165.125 56.4759 164.961 56.6544 164.961 56.7811H164.783C163.599 57.2878 162.81 57.5411 162.414 57.5411C162.37 57.5411 162.311 57.5104 162.236 57.4509C162.236 57.1899 162.265 56.7446 162.326 56.1112C162.282 55.9615 162.176 55.8867 162.013 55.8867C162.013 56.14 161.819 56.3185 161.432 56.4241L161.119 57.5411C159.868 59.09 158.944 59.8635 158.349 59.8635H158.305C158.008 59.7291 157.858 59.4163 157.858 58.925L158.438 57.5411C158.347 57.4221 158.288 57.3626 158.259 57.3626H157.724L157.545 57.497C157.24 58.0325 157.061 58.3012 157.008 58.3012C155.981 59.4624 155.25 60.0439 154.82 60.0439H154.729C154.58 59.9326 154.507 59.8577 154.507 59.8213V59.1956C154.507 59.0382 154.776 58.3914 155.311 57.2513C155.728 56.6774 155.937 56.3512 155.937 56.2686C155.937 56.2014 155.833 56.1419 155.624 56.0901C155.467 56.1381 155.336 56.1938 155.211 56.2533C155.211 56.2533 155.211 56.2494 155.211 56.2475C155.115 56.2686 154.996 56.3262 154.854 56.4145C153.776 57.2436 153.136 57.687 152.929 57.7561C152.996 57.3281 153.01 57.0421 152.968 56.9058C152.751 56.451 152.62 56.2322 152.576 56.2475C152.486 55.9654 151.993 55.8598 151.09 55.9347L150.947 55.9692C150.776 56.0133 150.693 56.0479 150.701 56.069C150.202 56.188 149.841 56.3857 149.616 56.6602C149.309 56.9001 149.102 57.1765 148.981 57.4855C147.902 58.5948 147.073 59.2455 146.499 59.4297H146.309C146.16 59.4297 146.087 59.3664 146.087 59.2397C146.087 58.8885 146.225 58.4202 146.499 57.8329C147.311 56.6045 147.716 55.8349 147.716 55.5201C147.567 55.1401 147.415 54.95 147.258 54.95C147.162 54.9712 147.06 54.9827 146.956 54.9827C146.563 55.1612 146.029 55.3301 145.359 55.4855L145.091 55.2955L144.521 55.4414H144.252C144.081 55.5527 143.995 55.6794 143.995 55.8214V55.8656L144.252 56.1669C144.208 56.2494 144.185 56.3128 144.185 56.3569C143.97 56.4989 143.855 56.6371 143.839 56.7696C143.862 56.8195 143.887 56.8617 143.914 56.9001C142.559 58.3703 141.546 59.2148 140.88 59.4278H140.69C140.54 59.4278 140.467 59.3645 140.467 59.2378C140.467 58.8866 140.605 58.4183 140.88 57.8309C141.692 56.6026 142.097 55.8329 142.097 55.5182C141.947 55.1381 141.795 54.9481 141.638 54.9481C141.542 54.9692 141.44 54.9808 141.337 54.9808C140.943 55.1593 140.409 55.3282 139.74 55.4836L139.471 55.2936L138.901 55.4395H138.632C138.461 55.5508 138.375 55.6775 138.375 55.8195V55.8636L138.632 56.165C138.588 56.2475 138.565 56.3108 138.565 56.355C138.446 56.4337 138.362 56.5105 138.304 56.5853C137.365 57.2993 136.799 57.6889 136.605 57.7522C136.673 57.3242 136.688 57.0383 136.644 56.902C136.427 56.4471 136.298 56.2283 136.252 56.2437C136.162 55.9615 135.667 55.856 134.767 55.9308L134.621 55.9654C134.45 56.0095 134.367 56.0441 134.375 56.0652C134.066 56.1381 133.815 56.2475 133.611 56.3819L133.592 56.3454C133.573 56.378 133.554 56.403 133.533 56.4337C133.44 56.5028 133.356 56.5757 133.289 56.6582C132.922 56.9442 132.69 57.282 132.59 57.6678C131.696 58.5699 131.011 59.042 130.54 59.0689H130.462C130.306 59.0689 130.224 58.9787 130.216 58.8002L130.193 58.5776C130.17 58.1611 130.327 57.4317 130.661 56.3895C130.646 56.1132 130.456 55.9212 130.091 55.808C129.853 55.808 129.347 56.1208 128.573 56.7465H128.539C128.278 56.2091 127.928 55.9423 127.489 55.9423H127.255C126.629 56.165 126.32 56.3147 126.327 56.3895C125.919 56.6122 125.423 57.0747 124.842 57.7734H124.763V57.7292C124.756 57.662 124.779 57.2859 124.83 56.6007L124.562 56.2322H124.159C124.088 56.284 124.045 56.3819 124.02 56.4989C123.013 57.2686 122.41 57.687 122.211 57.7503C122.278 57.3223 122.293 57.0363 122.249 56.9001C122.032 56.4452 121.903 56.2264 121.857 56.2417C121.767 55.9596 121.272 55.854 120.372 55.9289L120.226 55.9634C120.055 56.0076 119.973 56.0421 119.98 56.0633C119.635 56.1458 119.36 56.2686 119.147 56.426C119.168 56.33 119.195 56.2418 119.211 56.1419L119.143 56.0421C118.637 56.7945 118.19 57.378 117.804 57.7964C117.506 58.0421 117.163 58.2839 116.777 58.5219C115.458 59.3933 114.558 59.8289 114.075 59.8289C113.65 59.8289 113.401 59.6101 113.326 59.1706V58.7023C113.326 58.33 113.37 57.9653 113.46 57.6083C113.43 57.5411 113.416 57.4893 113.416 57.4509C113.416 57.3607 113.698 56.4874 114.265 54.8253C114.741 53.9021 114.979 53.3992 114.979 53.3167C115.194 52.9674 115.291 52.7889 115.268 52.7812C118.276 52.453 120.744 52.2342 122.673 52.1229L123.12 52.1786C123.195 52.1786 123.343 52.1421 123.568 52.0672L123.836 52.1229L125.366 52.0231C125.418 52.0615 125.489 52.0788 125.579 52.0788C125.855 52.0039 126.078 51.9674 126.249 51.9674H126.874L127.287 52.0135C127.287 51.9905 127.343 51.9578 127.454 51.9137L127.679 51.9694L128.986 51.8695L129.199 51.9694C129.354 51.9329 129.489 51.9137 129.6 51.9137H129.778C130.419 51.9137 131.197 51.8791 132.112 51.8139C132.172 51.8504 132.212 51.8695 132.235 51.8695L132.861 51.7122C133.062 51.7793 133.197 51.812 133.262 51.812H133.44C133.648 51.7448 133.769 51.7122 133.797 51.7122H134.066C134.201 51.7122 134.308 51.739 134.391 51.7909C134.391 51.739 134.477 51.7122 134.648 51.7122C134.723 51.7122 134.786 51.7275 134.838 51.7563C134.987 51.7275 135.118 51.7122 135.229 51.7122H136.223L136.302 51.7563C136.659 51.5855 136.868 51.4991 136.928 51.4991H136.974C137.064 51.4991 137.156 51.5317 137.254 51.5989C137.291 51.5989 137.358 51.5471 137.456 51.4435H137.534C137.579 51.5183 137.809 51.5893 138.227 51.6546C138.54 51.5874 138.734 51.5548 138.807 51.5548L139.03 51.5989L139.196 51.4991L139.519 51.5548C139.605 51.5548 139.745 51.5317 139.909 51.4953C139.935 51.5087 139.96 51.5164 139.987 51.5317L140.014 51.4722C140.06 51.4607 140.093 51.4569 140.145 51.4435C140.204 51.4435 140.231 51.4435 140.223 51.4435C140.358 51.4435 140.425 51.4627 140.425 51.4991C140.797 51.4684 141.012 51.4166 141.074 51.3417H141.164V51.4415H141.454V51.3302L141.711 51.3974C141.755 51.3974 141.826 51.3609 141.922 51.2861C142.004 51.2861 142.093 51.3129 142.191 51.3648C142.191 51.4396 142.294 51.4128 142.503 51.2861H142.559C142.686 51.2861 142.845 51.3053 143.039 51.3417L143.217 51.2419C143.388 51.2726 143.526 51.2861 143.63 51.2861H143.853C143.87 51.2861 143.972 51.2573 144.154 51.2016V51.3072H144.534V51.2765C144.544 51.2765 144.557 51.2842 144.567 51.2842L144.534 51.2477V50.9156H144.154V51.0941H144.031C143.928 51.1325 143.864 51.1498 143.841 51.1498C143.738 51.0826 143.684 51.0673 143.684 51.1057C143.557 51.1057 143.526 51.0846 143.594 51.0385C143.511 51.0385 143.448 51.0231 143.404 50.9943C143.217 51.0538 143.123 51.1383 143.123 51.2515H142.945C142.692 51.0807 142.565 51.0135 142.565 51.05C142.55 51.05 142.544 51.0385 142.544 51.0174V51.05L142.599 51.1844L142.465 51.263C142.346 51.1517 142.244 51.0961 142.164 51.0961C142.06 51.1997 141.953 51.2535 141.839 51.2535H141.705L141.772 50.9963H141.242C141.392 51.0193 141.471 51.1037 141.471 51.2535C141.327 51.2535 141.239 51.1652 141.2 50.9963H141.035C141.097 50.9886 141.15 50.9886 141.198 50.9924C141.191 50.9617 141.183 50.9329 141.179 50.8965L141.045 50.9176L140.933 51.0289H141.068C141.068 51.1402 141.024 51.1959 140.933 51.1959C140.688 50.9886 140.482 50.883 140.319 50.883L140.392 50.9636C140.386 51.0097 140.373 51.0807 140.342 51.1959H140.118L140.106 51.1767V51.0174H140.014L139.937 50.883H138.887C138.851 50.883 138.816 50.9867 138.788 51.1959H138.632V51.05H138.621C138.561 50.9751 138.502 50.956 138.442 50.9943L138.22 50.8945C138.041 50.9617 137.911 50.9943 137.828 50.9943C137.828 50.9502 137.795 50.9118 137.728 50.883L137.46 50.9387H136.565C136.415 50.9387 136.181 50.9579 135.861 50.9943C135.861 50.956 135.832 50.9387 135.771 50.9387C135.711 50.9751 135.659 50.9943 135.615 50.9943L135.402 50.883L134.721 50.9943L134.63 50.9387C134.483 50.9751 134.354 50.9943 134.243 50.9943C134.108 50.9943 133.915 50.9751 133.659 50.9387L133.179 50.9943C133.179 51.0308 133.187 51.05 133.202 51.05C133.202 51.0135 133.176 50.9943 133.124 50.9943H132.542L131.984 51.05L131.94 50.9387L131.381 51.0385L131.112 50.9943L129.638 51.0941L129.314 51.0039V51.0385C129.247 51.0385 128.997 51.0231 128.565 50.9943C128.491 50.9943 128.406 51.027 128.308 51.0941C128.241 51.0941 128.212 51.098 128.218 51.1057C127.318 51.1057 127.074 51.0846 127.493 51.0385C127.366 51.0385 127.247 51.0231 127.136 50.9943C127.024 51.0231 126.905 51.0385 126.779 51.0385H126.466C126.391 51.0385 126.331 51.0231 126.287 50.9943C126.243 51.0231 126.184 51.0385 126.109 51.0385H125.573C125.454 51.0385 125.335 51.075 125.216 51.1498C125.022 51.075 124.844 51.0385 124.681 51.0385C124.562 51.0385 124.335 51.075 123.999 51.1498L123.921 51.1057C123.877 51.1364 123.817 51.1498 123.742 51.1498H123.564C123.422 51.1498 123.274 51.1306 123.116 51.0941C122.587 51.1383 122.293 51.1901 122.234 51.2515C122.04 51.2515 121.813 51.2323 121.552 51.1959L121.33 51.2515L120.625 51.3513C118.228 51.5375 116.954 51.6642 116.806 51.7314H116.08C116.013 51.7314 115.973 51.6834 115.957 51.5855C116.552 50.5721 116.852 49.9656 116.852 49.7641C116.852 49.6815 116.785 49.5568 116.65 49.384L116.393 49.4397L116.17 49.384L116.103 49.4282C115.806 50.1057 115.6 50.5203 115.489 50.6681C115.489 50.8619 115.263 51.2861 114.808 51.9406C113.854 52.0442 112.153 52.3647 109.704 52.9002L109.593 53.1459L109.549 53.4146C109.624 53.5797 109.791 53.7274 110.052 53.8618L113.906 53.1248C113.965 53.1632 114.017 53.1804 114.063 53.1804C114.063 53.2994 113.959 53.5605 113.75 53.9616C113.572 54.1919 113.437 54.5393 113.349 55C113.155 55.2303 113.036 55.5623 112.992 55.9942C112.723 56.687 112.545 57.2935 112.457 57.8137C112.457 57.8444 112.472 57.8924 112.501 57.9595C112.472 58.1534 112.457 58.3146 112.457 58.4394V58.7522L112.366 58.9096V58.9998C112.457 59.1265 112.501 59.2532 112.501 59.3798V59.4911L112.457 59.5814C112.606 59.7906 112.681 59.9614 112.681 60.0957C112.963 60.447 113.414 60.6658 114.032 60.7541C114.568 60.7541 115.217 60.493 115.977 59.9729C116.357 59.7503 116.639 59.541 116.825 59.3472C117.115 59.2205 117.558 58.8271 118.149 58.1707C118.155 58.401 118.193 58.6428 118.276 58.9019C118.366 59.1035 118.458 59.2858 118.556 59.4489C119.019 59.9998 119.573 60.1975 120.22 60.0401C120.332 59.9883 120.428 59.9499 120.51 59.9288C120.8 59.7349 121.218 59.3587 121.761 58.8002C122.022 58.7407 122.339 58.5929 122.711 58.353C123.305 57.8751 123.744 57.472 124.043 57.1381C124.057 57.2148 124.065 57.2839 124.086 57.3703C123.923 58.3971 123.504 59.4105 122.834 60.4086C122.85 60.6389 122.997 60.7886 123.282 60.8558H123.36C123.562 60.8558 123.781 60.4988 124.019 59.7829C125.433 57.9135 126.581 56.8425 127.458 56.5661C127.688 56.5815 127.803 56.6256 127.803 56.7005L127.848 57.236C127.692 57.6601 127.617 57.8981 127.625 57.9519C127.214 58.353 127.018 58.6812 127.034 58.9345L127.045 59.0248C127.12 59.2033 127.228 59.2935 127.37 59.2935H127.437C127.519 59.2935 127.631 59.234 127.773 59.115C128.414 57.9231 129.08 57.1342 129.773 56.7465C129.801 56.7465 129.844 56.7619 129.895 56.7907C129.679 57.4164 129.535 57.9519 129.46 58.3991L129.471 58.6217C129.479 58.7484 129.504 58.9115 129.55 59.113C129.78 59.6505 130.157 59.9172 130.679 59.9172C131.17 59.9172 131.776 59.5084 132.5 58.6889C132.533 58.6543 132.556 58.6198 132.586 58.5852C132.607 58.6889 132.632 58.7925 132.667 58.9019C132.757 59.1035 132.849 59.2858 132.947 59.4489C133.41 59.9998 133.964 60.1975 134.611 60.0401C134.723 59.9883 134.819 59.9499 134.901 59.9288C135.191 59.7349 135.609 59.3587 136.152 58.8002C136.413 58.7407 136.73 58.5929 137.103 58.353C137.742 57.8367 138.21 57.4068 138.509 57.0575C138.529 57.0613 138.546 57.069 138.567 57.069H138.602C138.669 57.069 138.742 57.0459 138.824 57.0018C139.204 56.4951 139.408 56.2417 139.438 56.2417H139.473C139.957 56.2417 140.5 56.0748 141.102 55.7389H141.26V55.783C141.26 55.8732 141.181 56.0632 141.026 56.3531C140.78 56.6429 140.657 56.8195 140.657 56.879C140.024 57.7196 139.667 58.3799 139.584 58.8559V59.1246L139.628 59.2032C139.6 59.2032 139.573 59.2532 139.55 59.3491C139.573 59.3491 139.582 59.3875 139.582 59.4604C139.776 59.9441 140.17 60.1859 140.766 60.1859H140.91C141.505 59.971 142.091 59.6025 142.665 59.0804C143.528 58.2321 144.016 57.6333 144.129 57.282C144.202 57.1937 144.263 57.1131 144.317 57.0402C144.358 57.0287 144.396 57.0267 144.442 57.0018C144.822 56.4951 145.025 56.2417 145.056 56.2417H145.091C145.574 56.2417 146.118 56.0748 146.72 55.7389H146.878V55.783C146.878 55.8732 146.799 56.0632 146.643 56.3531C146.398 56.6429 146.275 56.8195 146.275 56.879C145.642 57.7196 145.285 58.3799 145.202 58.8559V59.1246L145.246 59.2032C145.217 59.2032 145.191 59.2532 145.167 59.3491C145.191 59.3491 145.2 59.3875 145.2 59.4604C145.394 59.9441 145.787 60.1859 146.384 60.1859H146.528C147.123 59.971 147.709 59.6025 148.283 59.0804C148.511 58.8559 148.711 58.6505 148.887 58.4605C148.908 58.6025 148.939 58.7484 148.987 58.9019C149.077 59.1035 149.169 59.2858 149.267 59.4489C149.73 59.9998 150.284 60.1975 150.931 60.0401C151.042 59.9883 151.138 59.9499 151.221 59.9288C151.511 59.7349 151.927 59.3587 152.47 58.8002C152.732 58.7407 153.048 58.5929 153.421 58.353C153.728 58.1054 153.992 57.8789 154.221 57.6697C153.764 58.5219 153.52 59.2436 153.52 59.8174C153.758 60.5333 154.175 60.8903 154.772 60.8903H154.816C155.493 60.7713 156.194 60.2493 156.916 59.3261H157.006C157.207 60.2186 157.683 60.6658 158.436 60.6658C159.188 60.6658 160.207 59.8462 161.562 58.209C162.046 58.328 162.389 58.3875 162.589 58.3875C162.804 58.3875 163.044 58.3434 163.305 58.2532C164.794 57.4797 165.539 56.8079 165.539 56.2437H165.449L165.453 56.2456ZM120.028 59.328C119.827 59.3798 119.66 59.3875 119.525 59.3491C119.339 59.3127 119.176 59.0631 119.034 58.6006L119 58.5008C118.858 58.0613 118.952 57.6102 119.28 57.1496H119.291C119.314 57.2398 119.328 57.3665 119.335 57.5296C119.358 57.6121 119.38 57.6486 119.403 57.6409C119.558 58.1169 119.984 58.5142 120.681 58.8328C120.642 58.923 120.427 59.0881 120.026 59.328H120.028ZM121.289 58.0996L121.178 58.1227C120.767 58.2263 120.441 58.0037 120.195 57.4528C120.032 56.9481 120.222 56.6256 120.765 56.4932C120.84 56.4721 120.884 56.4817 120.9 56.5277C121.174 56.4605 121.414 56.6794 121.614 57.1861C121.629 57.4835 121.52 57.7887 121.289 58.1016V58.0996ZM134.414 59.328C134.212 59.3798 134.045 59.3875 133.911 59.3491C133.725 59.3127 133.561 59.0631 133.419 58.6006L133.385 58.5008C133.243 58.0613 133.337 57.6102 133.665 57.1496H133.677C133.7 57.2398 133.713 57.3665 133.721 57.5296C133.744 57.6121 133.765 57.6486 133.788 57.6409C133.943 58.1169 134.369 58.5142 135.066 58.8328C135.028 58.923 134.813 59.0881 134.412 59.328H134.414ZM135.676 58.0996L135.565 58.1227C135.154 58.2263 134.828 58.0037 134.582 57.4528C134.419 56.9481 134.609 56.6256 135.152 56.4932C135.227 56.4721 135.271 56.4817 135.287 56.5277C135.561 56.4605 135.801 56.6794 136.001 57.1861C136.016 57.4835 135.907 57.7887 135.676 58.1016V58.0996ZM150.732 59.328C150.53 59.3798 150.363 59.3875 150.229 59.3491C150.043 59.3127 149.879 59.0631 149.737 58.6006L149.705 58.5008C149.563 58.0613 149.657 57.6102 149.983 57.1496H149.995C150.018 57.2398 150.031 57.3665 150.039 57.5296C150.062 57.6121 150.083 57.6486 150.106 57.6409C150.261 58.1169 150.687 58.5142 151.384 58.8328C151.346 58.923 151.131 59.0881 150.73 59.328H150.732ZM151.994 58.0996L151.883 58.1227C151.474 58.2263 151.146 58.0037 150.9 57.4528C150.735 56.9481 150.925 56.6256 151.471 56.4932C151.545 56.4721 151.59 56.4817 151.605 56.5277C151.881 56.4605 152.119 56.6794 152.321 57.1861C152.336 57.4835 152.227 57.7887 151.996 58.1016L151.994 58.0996Z" fill="#231F20"/>
</g>
<defs>
<clipPath id="clip0_9_474">
<rect width="210" height="70.8976" fill="white"/>
</clipPath>
</defs>
</svg>
